<svg width="1800" height="1500" viewBox="0 0 1800 1500" fill="none" xmlns="http://www.w3.org/2000/svg">
  <defs>
    <style>
      .bg{fill:#F7F9FC}.panel{fill:#fff;stroke:#D8E0EA}.soft{fill:#F4F7FB}.text{fill:#101828;font-family:'Microsoft YaHei UI','Segoe UI',Arial,sans-serif}.muted{fill:#667085;font-family:'Microsoft YaHei UI','Segoe UI',Arial,sans-serif}.blue{fill:#0F6CBD}.green{fill:#1FA463}.red{fill:#D13438}.line{stroke:#D8E0EA}.chip{fill:#EEF4FF;stroke:#A9C7FF}.shadow{filter:url(#shadow)}
    </style>
    <filter id="shadow" x="-10%" y="-10%" width="120%" height="130%">
      <feDropShadow dx="0" dy="12" stdDeviation="22" flood-color="#315179" flood-opacity="0.14"/>
    </filter>
    <linearGradient id="cover" x1="0" y1="0" x2="1" y2="1">
      <stop stop-color="#FF5FA2"/><stop offset=".55" stop-color="#7C5CFF"/><stop offset="1" stop-color="#64D2FF"/>
    </linearGradient>
  </defs>

  <rect width="1800" height="1500" fill="#EEF3F9"/>
  <text x="900" y="70" text-anchor="middle" class="text" font-size="34" font-weight="700">BBDown GUI UI/UX Design Pack - 平衡型桌面工具方案</text>
  <text x="900" y="108" text-anchor="middle" class="muted" font-size="18">主窗口 + macOS 差异 + 全页面缩略设计稿</text>

  <!-- Windows main artboard -->
  <g transform="translate(70 150)" class="shadow">
    <rect width="1160" height="790" rx="14" class="panel"/>
    <rect width="1160" height="42" rx="14" fill="#FFFFFF"/>
    <path d="M0 42H1160" class="line"/>
    <rect x="16" y="12" width="18" height="18" rx="5" fill="url(#cover)"/>
    <text x="44" y="27" class="text" font-size="14" font-weight="600">BBDown GUI</text>
    <path d="M1036 21H1048M1090 14V28H1104V14H1090ZM1143 14L1129 28M1129 14L1143 28" stroke="#101828" stroke-width="2" stroke-linecap="round"/>
    <rect y="42" width="196" height="748" class="soft"/>
    <path d="M196 42V790" class="line"/>
    <g transform="translate(0 76)">
      <rect x="0" y="0" width="4" height="44" class="blue"/>
      <rect x="16" y="0" width="164" height="44" rx="7" fill="#EAF3FF"/>
      <text x="62" y="28" class="blue text" font-size="17" font-weight="600">下载</text>
      <path d="M40 12V29M31 21L40 30L49 21M30 34H50" stroke="#0F6CBD" stroke-width="2.4" stroke-linecap="round" stroke-linejoin="round"/>
    </g>
    <g class="text" font-size="17">
      <text x="62" y="176">队列</text><text x="62" y="232">历史</text><text x="62" y="288">设置</text><text x="62" y="344">关于</text>
    </g>
    <text x="98" y="760" text-anchor="middle" class="muted" font-size="14">v0.2.0</text>

    <rect x="196" y="42" width="964" height="88" fill="#FFFFFF"/>
    <path d="M196 130H1160" class="line"/>
    <rect x="226" y="72" width="624" height="42" rx="8" fill="#fff" stroke="#C9D4E4"/>
    <text x="242" y="99" class="muted" font-size="15">粘贴链接 / BV 号（如 https://www.bilibili.com/video/BV...）</text>
    <rect x="866" y="72" width="86" height="42" rx="8" fill="#fff" stroke="#C9D4E4"/>
    <text x="909" y="99" text-anchor="middle" class="text" font-size="15" font-weight="600">解析</text>
    <rect x="966" y="72" width="146" height="42" rx="8" class="blue"/>
    <text x="1039" y="99" text-anchor="middle" fill="#fff" font-family="'Microsoft YaHei UI','Segoe UI',Arial" font-size="15" font-weight="700">开始下载</text>

    <path d="M850 130V758" class="line"/>
    <rect x="226" y="156" width="186" height="112" rx="8" fill="url(#cover)"/>
    <circle cx="319" cy="212" r="30" fill="#fff" fill-opacity=".28"/>
    <path d="M310 193L336 212L310 231V193Z" fill="#fff"/>
    <rect x="365" y="242" width="38" height="20" rx="5" fill="#101828" fill-opacity=".72"/>
    <text x="384" y="257" text-anchor="middle" fill="#fff" font-size="12">26:48</text>
    <text x="430" y="178" class="text" font-size="21" font-weight="700">【官方双语】2024 哔哩哔哩拜年纪</text>
    <text x="430" y="214" class="muted" font-size="15">UP 主：哔哩哔哩拜年纪  ·  BV1xx411c7mD</text>
    <text x="430" y="246" class="muted" font-size="14">投稿时间：2024-02-09 18:00:00  ·  时长：26:48  ·  分区：生活 / 日常</text>

    <rect x="226" y="292" width="592" height="420" rx="9" class="panel"/>
    <text x="246" y="322" class="text" font-size="17" font-weight="700">下载选项</text>
    <path d="M226 340H818" class="line"/>
    <text x="250" y="372" class="text" font-size="15">清晰度</text>
    <g transform="translate(356 350)" class="muted" font-size="13">
      <rect width="48" height="30" rx="6" class="chip"/><text x="24" y="20" text-anchor="middle" class="blue" font-weight="700">自动</text>
      <rect x="58" width="62" height="30" rx="6" fill="#fff" stroke="#D8E0EA"/><text x="89" y="20" text-anchor="middle">8K 超清</text>
      <rect x="130" width="68" height="30" rx="6" fill="#fff" stroke="#D8E0EA"/><text x="164" y="20" text-anchor="middle">4K 超清</text>
      <rect x="208" width="90" height="30" rx="6" fill="#fff" stroke="#D8E0EA"/><text x="253" y="20" text-anchor="middle">1080P 高码</text>
      <rect x="308" width="82" height="30" rx="6" fill="#fff" stroke="#D8E0EA"/><text x="349" y="20" text-anchor="middle">1080P</text>
    </g>
    <g class="text" font-size="15">
      <text x="250" y="424">内容模式</text><text x="250" y="476">附加资源</text><text x="250" y="528">性能</text><text x="250" y="580">保存位置</text><text x="250" y="632">高级</text>
    </g>
    <g transform="translate(356 400)">
      <rect width="82" height="30" rx="6" class="chip"/><text x="41" y="20" text-anchor="middle" class="blue text" font-size="13" font-weight="700">完整视频</text>
      <rect x="92" width="70" height="30" rx="6" fill="#fff" stroke="#D8E0EA"/><text x="127" y="20" text-anchor="middle" class="muted" font-size="13">仅音频</text>
      <rect x="172" width="70" height="30" rx="6" fill="#fff" stroke="#D8E0EA"/><text x="207" y="20" text-anchor="middle" class="muted" font-size="13">仅视频</text>
    </g>
    <g class="muted" font-size="14">
      <rect x="356" y="454" width="18" height="18" rx="4" class="blue"/><text x="386" y="468">字幕</text>
      <rect x="456" y="454" width="18" height="18" rx="4" class="blue"/><text x="486" y="468">弹幕</text>
      <rect x="556" y="454" width="18" height="18" rx="4" class="blue"/><text x="586" y="468">封面</text>
      <rect x="356" y="506" width="18" height="18" rx="4" class="blue"/><text x="386" y="520">使用 aria2c</text>
      <rect x="560" y="498" width="104" height="34" rx="7" fill="#fff" stroke="#D8E0EA"/><text x="612" y="520" text-anchor="middle">并发 16</text>
      <rect x="356" y="558" width="370" height="34" rx="7" fill="#fff" stroke="#D8E0EA"/><text x="372" y="580">D:\Downloads\BBDown</text>
      <rect x="738" y="558" width="58" height="34" rx="7" fill="#fff" stroke="#D8E0EA"/><text x="767" y="580" text-anchor="middle">浏览</text>
      <rect x="356" y="610" width="82" height="30" rx="6" class="chip"/><text x="397" y="630" text-anchor="middle" class="blue">普通模式</text>
      <rect x="448" y="610" width="68" height="30" rx="6" fill="#fff" stroke="#D8E0EA"/><text x="482" y="630" text-anchor="middle">TV 模式</text>
      <rect x="526" y="610" width="72" height="30" rx="6" fill="#fff" stroke="#D8E0EA"/><text x="562" y="630" text-anchor="middle">APP 模式</text>
    </g>

    <g transform="translate(880 156)">
      <text class="text" font-size="16" font-weight="700">工具状态</text>
      <rect y="20" width="250" height="96" rx="8" class="panel"/>
      <circle cx="22" cy="48" r="6" class="green"/><text x="40" y="53" class="text" font-size="14">BBDown</text><text x="150" y="53" class="green text" font-size="13">正常</text><text x="212" y="53" class="muted" font-size="13">v1.6.3</text>
      <circle cx="22" cy="78" r="6" class="green"/><text x="40" y="83" class="text" font-size="14">FFmpeg</text><text x="150" y="83" class="green text" font-size="13">正常</text><text x="212" y="83" class="muted" font-size="13">v7.0.0</text>
      <circle cx="22" cy="108" r="6" class="green"/><text x="40" y="113" class="text" font-size="14">aria2c</text><text x="150" y="113" class="green text" font-size="13">正常</text><text x="218" y="113" class="muted" font-size="13">可选</text>
      <text y="160" class="text" font-size="16" font-weight="700">账号状态</text>
      <rect y="182" width="250" height="58" rx="8" class="panel"/><circle cx="34" cy="211" r="20" fill="#E7ECF3"/><text x="66" y="207" class="text" font-size="14" font-weight="700">未登录</text><text x="66" y="226" class="blue text" font-size="12">登录 / 切换账号</text>
      <text y="284" class="text" font-size="16" font-weight="700">最近任务</text>
      <g font-size="13">
        <rect y="304" width="250" height="54" rx="8" class="panel"/><rect x="12" y="314" width="34" height="34" rx="7" fill="url(#cover)"/><text x="58" y="326" class="text" font-weight="700">【官方双语】2024...</text><text x="58" y="346" class="green text">已完成  26:48  1080P</text>
        <rect y="366" width="250" height="54" rx="8" class="panel"/><rect x="12" y="376" width="34" height="34" rx="7" fill="#344054"/><text x="58" y="388" class="text" font-weight="700">原神动画短片...</text><text x="58" y="408" class="blue text">下载中  12%</text>
        <rect y="428" width="250" height="54" rx="8" class="panel"/><rect x="12" y="438" width="34" height="34" rx="7" fill="#6B7A90"/><text x="58" y="450" class="text" font-weight="700">年度动画混剪...</text><text x="58" y="470" class="green text">已完成  720P</text>
      </g>
    </g>
    <rect x="196" y="758" width="964" height="32" fill="#fff"/>
    <path d="M196 758H1160" class="line"/>
    <circle cx="228" cy="774" r="5" class="green"/><text x="244" y="779" class="muted" font-size="13">就绪</text>
    <text x="1038" y="779" text-anchor="end" class="muted" font-size="13">已选择 1 个任务</text>
  </g>

  <!-- mac titlebar variant -->
  <g transform="translate(1270 150)" class="shadow">
    <rect width="460" height="300" rx="16" class="panel"/>
    <rect width="460" height="42" rx="16" fill="#FFFFFF"/>
    <circle cx="22" cy="21" r="6" fill="#FF5F57"/><circle cx="44" cy="21" r="6" fill="#FFBD2E"/><circle cx="66" cy="21" r="6" fill="#28C840"/>
    <text x="92" y="27" class="text" font-size="14" font-weight="600">BBDown GUI</text>
    <path d="M0 42H460" class="line"/>
    <rect y="42" width="126" height="258" class="soft"/>
    <rect x="14" y="70" width="98" height="36" rx="8" fill="#EAF3FF"/>
    <text x="48" y="94" class="blue text" font-size="14" font-weight="700">下载</text>
    <rect x="146" y="70" width="190" height="34" rx="8" fill="#fff" stroke="#C9D4E4"/>
    <rect x="346" y="70" width="78" height="34" rx="8" class="blue"/>
    <text x="385" y="92" text-anchor="middle" fill="#fff" font-size="13" font-family="'Microsoft YaHei UI'">开始</text>
    <rect x="146" y="126" width="130" height="78" rx="8" fill="url(#cover)"/>
    <rect x="294" y="128" width="128" height="14" rx="7" fill="#101828"/>
    <rect x="294" y="154" width="92" height="10" rx="5" fill="#667085"/>
    <rect x="146" y="220" width="278" height="50" rx="8" class="panel"/>
    <text x="146" y="330" class="muted" font-size="14">macOS 版：左上 traffic lights，内容区右移，按钮不显示 Windows 三键</text>
  </g>

  <!-- Page thumbnails -->
  <g transform="translate(70 1000)">
    <text class="text" font-size="26" font-weight="700">页面补全缩略图</text>
    <g transform="translate(0 44)">
      <rect width="260" height="180" rx="12" class="panel"/><text x="20" y="34" class="text" font-size="18" font-weight="700">下载</text><rect x="20" y="54" width="220" height="24" rx="6" fill="#fff" stroke="#D8E0EA"/><rect x="20" y="96" width="82" height="50" rx="8" fill="url(#cover)"/><rect x="118" y="98" width="110" height="12" rx="6" fill="#101828"/><rect x="118" y="122" width="88" height="9" rx="5" fill="#98A2B3"/>
    </g>
    <g transform="translate(286 44)">
      <rect width="260" height="180" rx="12" class="panel"/><text x="20" y="34" class="text" font-size="18" font-weight="700">队列</text><rect x="20" y="56" width="220" height="34" rx="8" fill="#F7F9FC"/><rect x="20" y="100" width="220" height="34" rx="8" fill="#F7F9FC"/><rect x="20" y="144" width="220" height="14" rx="7" fill="#EAF3FF"/><rect x="20" y="144" width="128" height="14" rx="7" class="blue"/>
    </g>
    <g transform="translate(572 44)">
      <rect width="260" height="180" rx="12" class="panel"/><text x="20" y="34" class="text" font-size="18" font-weight="700">历史</text><rect x="20" y="54" width="42" height="34" rx="8" fill="#EAF3FF"/><rect x="76" y="54" width="42" height="34" rx="8" fill="#EAFBF2"/><rect x="20" y="108" width="220" height="44" rx="8" fill="#F7F9FC"/><rect x="36" y="122" width="94" height="10" rx="5" fill="#101828"/>
    </g>
    <g transform="translate(858 44)">
      <rect width="260" height="180" rx="12" class="panel"/><text x="20" y="34" class="text" font-size="18" font-weight="700">设置</text><rect x="20" y="56" width="220" height="24" rx="6" fill="#F7F9FC"/><rect x="20" y="92" width="220" height="24" rx="6" fill="#F7F9FC"/><rect x="20" y="128" width="156" height="24" rx="6" fill="#F7F9FC"/><rect x="184" y="128" width="56" height="24" rx="6" class="blue"/>
    </g>
    <g transform="translate(1144 44)">
      <rect width="260" height="180" rx="12" class="panel"/><text x="20" y="34" class="text" font-size="18" font-weight="700">关于</text><rect x="28" y="58" width="46" height="46" rx="12" fill="url(#cover)"/><rect x="92" y="64" width="112" height="12" rx="6" fill="#101828"/><rect x="92" y="88" width="82" height="9" rx="5" fill="#98A2B3"/><rect x="28" y="128" width="204" height="24" rx="6" fill="#F7F9FC"/>
    </g>
  </g>
</svg>
