<svg width="1800" height="1260" viewBox="0 0 1800 1260" fill="none" xmlns="http://www.w3.org/2000/svg">
  <defs>
    <style>.panel{fill:#fff;stroke:#D8E0EA}.soft{fill:#F7F9FC}.text{fill:#101828;font-family:'Microsoft YaHei UI','Segoe UI',Arial,sans-serif}.muted{fill:#667085;font-family:'Microsoft YaHei UI','Segoe UI',Arial,sans-serif}.blue{fill:#0F6CBD}.green{fill:#1FA463}.red{fill:#D13438}.warn{fill:#C17700}.line{stroke:#D8E0EA}.chip{fill:#EEF4FF;stroke:#A9C7FF}</style>
    <linearGradient id="cover" x1="0" y1="0" x2="1" y2="1"><stop stop-color="#FF5FA2"/><stop offset=".55" stop-color="#7C5CFF"/><stop offset="1" stop-color="#64D2FF"/></linearGradient>
    <filter id="shadow"><feDropShadow dx="0" dy="12" stdDeviation="22" flood-color="#315179" flood-opacity=".12"/></filter>
  </defs>
  <rect width="1800" height="1260" fill="#EEF3F9"/>
  <text x="70" y="68" class="text" font-size="34" font-weight="700">下载页设计图</text>
  <text x="70" y="102" class="muted" font-size="18">覆盖：空状态、解析结果、分 P 选择、开始下载确认与右侧状态栏</text>
  <g transform="translate(70 140)" filter="url(#shadow)">
    <rect width="800" height="520" rx="14" class="panel"/>
    <text x="28" y="44" class="text" font-size="24" font-weight="700">A. 初始 / 未解析</text>
    <rect x="28" y="72" width="744" height="64" rx="10" class="soft" stroke="#D8E0EA"/>
    <rect x="48" y="88" width="520" height="32" rx="8" fill="#fff" stroke="#C9D4E4"/>
    <text x="66" y="110" class="muted" font-size="14">粘贴 Bilibili 链接 / BV 号</text>
    <rect x="582" y="88" width="76" height="32" rx="8" fill="#fff" stroke="#C9D4E4"/><text x="620" y="110" text-anchor="middle" class="text" font-size="14">解析</text>
    <rect x="668" y="88" width="82" height="32" rx="8" fill="#D8E0EA"/><text x="709" y="110" text-anchor="middle" class="muted" font-size="14">开始下载</text>
    <g transform="translate(210 178)">
      <rect width="380" height="260" rx="20" fill="#FFFFFF" stroke="#D8E0EA"/>
      <circle cx="190" cy="92" r="42" fill="#0F6CBD" fill-opacity=".10"/><path d="M178 70L216 92L178 114V70Z" fill="#0F6CBD"/>
      <text x="190" y="164" text-anchor="middle" class="text" font-size="19" font-weight="700">等待解析视频信息</text>
      <text x="190" y="194" text-anchor="middle" class="muted" font-size="14">输入链接后按 Enter 或点击解析</text>
    </g>
  </g>
  <g transform="translate(930 140)" filter="url(#shadow)">
    <rect width="800" height="520" rx="14" class="panel"/>
    <text x="28" y="44" class="text" font-size="24" font-weight="700">B. 解析后 / 单视频</text>
    <rect x="28" y="72" width="744" height="64" rx="10" class="soft" stroke="#D8E0EA"/>
    <rect x="48" y="88" width="520" height="32" rx="8" fill="#fff" stroke="#C9D4E4"/><text x="66" y="110" class="text" font-size="14">BV1xx411c7mD</text>
    <rect x="582" y="88" width="76" height="32" rx="8" fill="#fff" stroke="#C9D4E4"/><text x="620" y="110" text-anchor="middle" class="text" font-size="14">重新解析</text>
    <rect x="668" y="88" width="82" height="32" rx="8" class="blue"/><text x="709" y="110" text-anchor="middle" fill="#fff" font-size="14" font-family="'Microsoft YaHei UI'">开始下载</text>
    <rect x="48" y="164" width="160" height="96" rx="8" fill="url(#cover)"/><circle cx="128" cy="212" r="25" fill="#fff" fill-opacity=".25"/><path d="M120 197L142 212L120 227V197Z" fill="#fff"/>
    <text x="228" y="188" class="text" font-size="20" font-weight="700">【官方双语】2024 哔哩哔哩拜年纪</text>
    <text x="228" y="220" class="muted" font-size="14">UP 主：哔哩哔哩拜年纪 · BV1xx411c7mD · 26:48</text>
    <text x="228" y="248" class="muted" font-size="14">发布时间：2024-02-09 18:00:00 · 生活 / 日常</text>
    <rect x="48" y="288" width="512" height="184" rx="10" class="panel"/><text x="68" y="318" class="text" font-size="17" font-weight="700">下载选项</text>
    <text x="68" y="356" class="muted" font-size="14">画质</text><rect x="128" y="336" width="52" height="30" rx="6" class="chip"/><text x="154" y="356" text-anchor="middle" class="blue text" font-size="13" font-weight="700">自动</text>
    <rect x="190" y="336" width="70" height="30" rx="6" fill="#fff" stroke="#D8E0EA"/><text x="225" y="356" text-anchor="middle" class="muted" font-size="13">1080P</text>
    <text x="68" y="404" class="muted" font-size="14">内容</text><rect x="128" y="384" width="78" height="30" rx="6" class="chip"/><text x="167" y="404" text-anchor="middle" class="blue text" font-size="13" font-weight="700">完整视频</text>
    <rect x="216" y="384" width="66" height="30" rx="6" fill="#fff" stroke="#D8E0EA"/><text x="249" y="404" text-anchor="middle" class="muted" font-size="13">仅音频</text>
    <text x="68" y="452" class="muted" font-size="14">附加</text><circle cx="136" cy="448" r="7" class="blue"/><text x="152" y="452" class="text" font-size="13">字幕</text><circle cx="206" cy="448" r="7" class="blue"/><text x="222" y="452" class="text" font-size="13">弹幕</text><circle cx="276" cy="448" r="7" class="blue"/><text x="292" y="452" class="text" font-size="13">封面</text>
    <rect x="584" y="164" width="168" height="308" rx="10" class="panel"/><text x="604" y="194" class="text" font-size="16" font-weight="700">右侧状态</text>
    <circle cx="610" cy="226" r="6" class="green"/><text x="628" y="231" class="text" font-size="13">BBDown 正常</text><circle cx="610" cy="258" r="6" class="green"/><text x="628" y="263" class="text" font-size="13">FFmpeg 正常</text><circle cx="610" cy="290" r="6" class="warn"/><text x="628" y="295" class="text" font-size="13">aria2c 可选</text>
  </g>
  <g transform="translate(70 720)" filter="url(#shadow)">
    <rect width="800" height="430" rx="14" class="panel"/><text x="28" y="44" class="text" font-size="24" font-weight="700">C. 多分 P 选择子状态</text>
    <rect x="36" y="78" width="728" height="308" rx="10" class="panel"/><text x="60" y="112" class="text" font-size="18" font-weight="700">分 P 列表</text><text x="650" y="112" text-anchor="end" class="muted" font-size="14">已选 4 / 12</text>
    <rect x="60" y="132" width="78" height="28" rx="6" class="chip"/><text x="99" y="151" text-anchor="middle" class="blue text" font-size="13">全选</text><rect x="148" y="132" width="78" height="28" rx="6" fill="#fff" stroke="#D8E0EA"/><text x="187" y="151" text-anchor="middle" class="muted" font-size="13">反选</text>
    <g transform="translate(60 180)" class="text" font-size="14">
      <rect width="320" height="44" rx="8" fill="#EAF3FF" stroke="#A9C7FF"/><circle cx="22" cy="22" r="8" class="blue"/><text x="44" y="27">P1 开场与片头</text><text x="286" y="27" class="muted">03:18</text>
      <rect x="348" width="320" height="44" rx="8" fill="#EAF3FF" stroke="#A9C7FF"/><circle cx="370" cy="22" r="8" class="blue"/><text x="392" y="27">P2 正片上</text><text x="634" y="27" class="muted">12:20</text>
      <rect y="56" width="320" height="44" rx="8" fill="#fff" stroke="#D8E0EA"/><circle cx="22" cy="78" r="8" fill="#fff" stroke="#98A2B3"/><text x="44" y="83">P3 正片下</text><text x="286" y="83" class="muted">09:16</text>
      <rect x="348" y="56" width="320" height="44" rx="8" fill="#EAF3FF" stroke="#A9C7FF"/><circle cx="370" cy="78" r="8" class="blue"/><text x="392" y="83">P4 幕后花絮</text><text x="634" y="83" class="muted">04:42</text>
    </g>
  </g>
  <g transform="translate(930 720)" filter="url(#shadow)">
    <rect width="800" height="430" rx="14" class="panel"/><text x="28" y="44" class="text" font-size="24" font-weight="700">D. 开始下载确认 / 错误子状态</text>
    <rect x="46" y="84" width="332" height="230" rx="12" fill="#FFFFFF" stroke="#D8E0EA"/><text x="70" y="124" class="text" font-size="20" font-weight="700">确认加入队列</text><text x="70" y="158" class="muted" font-size="14">将创建 4 个分 P 子任务，保存到：</text>
    <rect x="70" y="178" width="260" height="34" rx="7" class="soft" stroke="#D8E0EA"/><text x="86" y="200" class="muted" font-size="13">D:\Downloads\BBDown</text><circle cx="78" cy="238" r="7" class="blue"/><text x="96" y="243" class="text" font-size="14">完整视频 + 字幕 + 弹幕 + 封面</text>
    <rect x="178" y="264" width="78" height="34" rx="8" fill="#fff" stroke="#D8E0EA"/><text x="217" y="287" text-anchor="middle" class="text" font-size="14">取消</text><rect x="266" y="264" width="80" height="34" rx="8" class="blue"/><text x="306" y="287" text-anchor="middle" fill="#fff" font-size="14">加入队列</text>
    <rect x="430" y="84" width="332" height="230" rx="12" fill="#FFF7F7" stroke="#F5B5B8"/><text x="454" y="124" class="red text" font-size="20" font-weight="700">无法开始下载</text><text x="454" y="158" class="text" font-size="14">请先处理以下问题：</text>
    <circle cx="462" cy="190" r="5" class="red"/><text x="476" y="195" class="text" font-size="14">未检测到 BBDown</text><circle cx="462" cy="222" r="5" class="red"/><text x="476" y="227" class="text" font-size="14">保存目录为空</text><circle cx="462" cy="254" r="5" class="red"/><text x="476" y="259" class="text" font-size="14">仅音频与仅视频不可同时启用</text>
  </g>
</svg>
