<svg width="1800" height="1220" viewBox="0 0 1800 1220" fill="none" xmlns="http://www.w3.org/2000/svg">
  <defs>
    <style>.panel{fill:#fff;stroke:#D8E0EA}.soft{fill:#F7F9FC}.text{fill:#101828;font-family:'Microsoft YaHei UI','Segoe UI',Arial,sans-serif}.muted{fill:#667085;font-family:'Microsoft YaHei UI','Segoe UI',Arial,sans-serif}.blue{fill:#0F6CBD}.green{fill:#1FA463}.red{fill:#D13438}.line{stroke:#D8E0EA}</style>
    <linearGradient id="cover" x1="0" y1="0" x2="1" y2="1"><stop stop-color="#FF5FA2"/><stop offset=".55" stop-color="#7C5CFF"/><stop offset="1" stop-color="#64D2FF"/></linearGradient>
    <filter id="shadow"><feDropShadow dx="0" dy="12" stdDeviation="22" flood-color="#315179" flood-opacity=".12"/></filter>
  </defs>
  <rect width="1800" height="1220" fill="#EEF3F9"/><text x="70" y="68" class="text" font-size="34" font-weight="700">历史页设计图</text><text x="70" y="102" class="muted" font-size="18">覆盖：统计、筛选、产物展开、后处理弹窗、缺失文件重新定位</text>
  <g transform="translate(70 140)" filter="url(#shadow)">
    <rect width="1080" height="900" rx="14" class="panel"/><text x="32" y="48" class="text" font-size="24" font-weight="700">A. 历史列表 / 产物展开</text>
    <g transform="translate(32 76)">
      <rect width="190" height="72" rx="10" class="soft" stroke="#D8E0EA"/><text x="28" y="36" class="text" font-size="24" font-weight="700">128</text><text x="28" y="58" class="muted" font-size="13">总任务</text>
      <rect x="206" width="190" height="72" rx="10" class="soft" stroke="#D8E0EA"/><text x="234" y="36" class="green text" font-size="24" font-weight="700">121</text><text x="234" y="58" class="muted" font-size="13">完成</text>
      <rect x="412" width="190" height="72" rx="10" class="soft" stroke="#D8E0EA"/><text x="440" y="36" class="red text" font-size="24" font-weight="700">7</text><text x="440" y="58" class="muted" font-size="13">失败</text>
      <rect x="618" width="190" height="72" rx="10" class="soft" stroke="#D8E0EA"/><text x="646" y="36" class="text" font-size="24" font-weight="700">492</text><text x="646" y="58" class="muted" font-size="13">产物</text>
      <rect x="824" width="190" height="72" rx="10" class="soft" stroke="#D8E0EA"/><text x="852" y="36" class="text" font-size="24" font-weight="700">84.6G</text><text x="852" y="58" class="muted" font-size="13">占用空间</text>
    </g>
    <rect x="32" y="178" width="1016" height="58" rx="10" class="soft" stroke="#D8E0EA"/><rect x="56" y="192" width="320" height="30" rx="7" fill="#fff" stroke="#D8E0EA"/><text x="76" y="212" class="muted" font-size="13">搜索标题 / BV / UP / 文件名</text><rect x="394" y="192" width="118" height="30" rx="7" fill="#fff" stroke="#D8E0EA"/><text x="453" y="212" text-anchor="middle" class="text" font-size="13">全部状态</text><rect x="526" y="192" width="118" height="30" rx="7" fill="#fff" stroke="#D8E0EA"/><text x="585" y="212" text-anchor="middle" class="text" font-size="13">全部类型</text>
    <g transform="translate(32 264)">
      <rect width="1016" height="120" rx="10" class="panel"/><rect x="20" y="22" width="112" height="70" rx="8" fill="url(#cover)"/><text x="152" y="40" class="text" font-size="17" font-weight="700">【官方双语】2024 哔哩哔哩拜年纪</text><text x="152" y="68" class="muted" font-size="13">BV1xx411c7mD · 哔哩哔哩拜年纪 · 2026-04-28 22:10 · 1.42 GB</text><rect x="152" y="82" width="70" height="24" rx="12" fill="#EAFBF2"/><text x="187" y="99" text-anchor="middle" class="green text" font-size="12">已完成</text><rect x="232" y="82" width="70" height="24" rx="12" fill="#EEF4FF"/><text x="267" y="99" text-anchor="middle" class="blue text" font-size="12">4 个产物</text><rect x="802" y="42" width="70" height="30" rx="7" fill="#fff" stroke="#D8E0EA"/><text x="837" y="62" text-anchor="middle" class="text" font-size="13">打开</text><rect x="884" y="42" width="70" height="30" rx="7" fill="#fff" stroke="#D8E0EA"/><text x="919" y="62" text-anchor="middle" class="text" font-size="13">展开</text>
    </g>
    <g transform="translate(32 402)">
      <rect width="1016" height="308" rx="10" class="panel"/><text x="20" y="34" class="text" font-size="17" font-weight="700">产物明细</text><path d="M20 54H996" class="line"/>
      <text x="28" y="84" class="muted" font-size="13">类型</text><text x="140" y="84" class="muted" font-size="13">文件名</text><text x="452" y="84" class="muted" font-size="13">媒体信息</text><text x="686" y="84" class="muted" font-size="13">大小</text><text x="780" y="84" class="muted" font-size="13">操作</text><path d="M20 102H996" class="line"/>
      <text x="28" y="132" class="text" font-size="14">视频</text><text x="140" y="132" class="text" font-size="14">拜年纪_1080p.mp4</text><text x="452" y="132" class="muted" font-size="14">MP4 / H.264 / AAC / 1920x1080</text><text x="686" y="132" class="muted" font-size="14">1.38 GB</text><rect x="780" y="112" width="52" height="28" rx="7" fill="#fff" stroke="#D8E0EA"/><text x="806" y="131" text-anchor="middle" class="text" font-size="12">打开</text><rect x="840" y="112" width="64" height="28" rx="7" fill="#fff" stroke="#D8E0EA"/><text x="872" y="131" text-anchor="middle" class="text" font-size="12">重命名</text><rect x="912" y="112" width="64" height="28" rx="7" class="blue"/><text x="944" y="131" text-anchor="middle" fill="#fff" font-size="12">后处理</text>
      <path d="M20 158H996" class="line"/><text x="28" y="188" class="text" font-size="14">字幕</text><text x="140" y="188" class="text" font-size="14">拜年纪.zh-Hans.ass</text><text x="452" y="188" class="muted" font-size="14">ASS / zh-Hans</text><text x="686" y="188" class="muted" font-size="14">186 KB</text>
      <path d="M20 214H996" class="line"/><text x="28" y="244" class="red text" font-size="14">封面</text><text x="140" y="244" class="text" font-size="14">cover.jpg</text><text x="452" y="244" class="red text" font-size="14">文件缺失</text><text x="686" y="244" class="muted" font-size="14">-</text><rect x="780" y="224" width="82" height="28" rx="7" class="blue"/><text x="821" y="243" text-anchor="middle" fill="#fff" font-size="12">重新定位</text>
    </g>
  </g>
  <g transform="translate(1190 140)" filter="url(#shadow)">
    <rect width="540" height="386" rx="14" class="panel"/><text x="28" y="48" class="text" font-size="24" font-weight="700">B. 后处理弹窗</text><rect x="70" y="92" width="400" height="236" rx="12" class="panel"/><text x="98" y="132" class="text" font-size="20" font-weight="700">视频后处理</text><text x="98" y="162" class="muted" font-size="14">拜年纪_1080p.mp4</text><rect x="98" y="190" width="300" height="34" rx="8" fill="#fff" stroke="#D8E0EA"/><text x="114" y="212" class="text" font-size="14">Remux MP4（不重新编码）</text><circle cx="106" cy="248" r="7" class="blue"/><text x="124" y="253" class="text" font-size="14">保留源文件</text><rect x="278" y="302" width="72" height="34" rx="8" fill="#fff" stroke="#D8E0EA"/><text x="314" y="325" text-anchor="middle" class="text" font-size="14">取消</text><rect x="360" y="302" width="82" height="34" rx="8" class="blue"/><text x="401" y="325" text-anchor="middle" fill="#fff" font-size="14">开始</text>
  </g>
  <g transform="translate(1190 570)" filter="url(#shadow)">
    <rect width="540" height="320" rx="14" class="panel"/><text x="28" y="48" class="text" font-size="24" font-weight="700">C. 缺失文件重新定位</text><rect x="64" y="88" width="412" height="172" rx="12" fill="#FFF7F7" stroke="#F5B5B8"/><text x="92" y="128" class="red text" font-size="19" font-weight="700">cover.jpg 不存在</text><text x="92" y="158" class="text" font-size="14">可重新选择文件位置，或只移除历史记录中的产物引用。</text><rect x="92" y="188" width="150" height="34" rx="8" class="blue"/><text x="167" y="211" text-anchor="middle" fill="#fff" font-size="14">选择新位置</text><rect x="254" y="188" width="122" height="34" rx="8" fill="#fff" stroke="#D8E0EA"/><text x="315" y="211" text-anchor="middle" class="text" font-size="14">移除记录</text>
  </g>
</svg>
