<svg width="1800" height="1500" viewBox="0 0 1800 1500" fill="none" xmlns="http://www.w3.org/2000/svg">
  <defs>
    <style>.panel{fill:#fff;stroke:#D8E0EA}.soft{fill:#F7F9FC}.text{fill:#101828;font-family:'Microsoft YaHei UI','Segoe UI',Arial,sans-serif}.muted{fill:#667085;font-family:'Microsoft YaHei UI','Segoe UI',Arial,sans-serif}.blue{fill:#0F6CBD}.green{fill:#1FA463}.warn{fill:#C17700}.line{stroke:#D8E0EA}</style>
    <linearGradient id="mark" x1="0" y1="0" x2="1" y2="1"><stop stop-color="#64D2FF"/><stop offset=".55" stop-color="#7C5CFF"/><stop offset="1" stop-color="#FF5FA2"/></linearGradient>
    <filter id="shadow"><feDropShadow dx="0" dy="12" stdDeviation="22" flood-color="#315179" flood-opacity=".12"/></filter>
  </defs>
  <rect width="1800" height="1500" fill="#EEF3F9"/><text x="70" y="68" class="text" font-size="34" font-weight="700">设置 / 关于页面设计图</text><text x="70" y="102" class="muted" font-size="18">覆盖：工具路径、账号登录、扫码弹窗、关于与诊断信息</text>
  <g transform="translate(70 140)" filter="url(#shadow)">
    <rect width="760" height="900" rx="14" class="panel"/><text x="30" y="48" class="text" font-size="24" font-weight="700">A. 设置页</text>
    <g transform="translate(30 78)">
      <text class="text" font-size="18" font-weight="700">账号 / Cookie</text><rect y="22" width="700" height="82" rx="10" class="panel"/><circle cx="38" cy="63" r="20" fill="#E7ECF3"/><text x="72" y="58" class="text" font-size="15" font-weight="700">Bilibili 未登录</text><text x="72" y="80" class="muted" font-size="13">登录会调用 BBDown，本应用不保存账号密码</text><rect x="520" y="46" width="82" height="34" rx="8" class="blue"/><text x="561" y="69" text-anchor="middle" fill="#fff" font-size="14">扫码登录</text><rect x="612" y="46" width="60" height="34" rx="8" fill="#fff" stroke="#D8E0EA"/><text x="642" y="69" text-anchor="middle" class="text" font-size="14">刷新</text>
    </g>
    <g transform="translate(30 214)">
      <text class="text" font-size="18" font-weight="700">工具路径</text><rect y="22" width="700" height="252" rx="10" class="panel"/>
      <circle cx="28" cy="64" r="6" class="green"/><text x="46" y="69" class="text" font-size="14" font-weight="700">BBDown</text><text x="134" y="69" class="green text" font-size="13">v1.6.3</text><rect x="230" y="48" width="360" height="34" rx="7" fill="#fff" stroke="#D8E0EA"/><text x="246" y="70" class="muted" font-size="13">D:\Downloads\BBDown.exe</text><rect x="602" y="48" width="64" height="34" rx="7" fill="#fff" stroke="#D8E0EA"/><text x="634" y="70" text-anchor="middle" class="text" font-size="13">浏览</text>
      <circle cx="28" cy="128" r="6" class="green"/><text x="46" y="133" class="text" font-size="14" font-weight="700">FFmpeg</text><text x="134" y="133" class="green text" font-size="13">v7.0.0</text><rect x="230" y="112" width="360" height="34" rx="7" fill="#fff" stroke="#D8E0EA"/><text x="246" y="134" class="muted" font-size="13">C:\Tools\ffmpeg.exe</text><rect x="602" y="112" width="64" height="34" rx="7" fill="#fff" stroke="#D8E0EA"/><text x="634" y="134" text-anchor="middle" class="text" font-size="13">浏览</text>
      <circle cx="28" cy="192" r="6" class="warn"/><text x="46" y="197" class="text" font-size="14" font-weight="700">aria2c</text><text x="134" y="197" class="warn text" font-size="13">未配置</text><rect x="230" y="176" width="360" height="34" rx="7" fill="#fff" stroke="#D8E0EA"/><text x="246" y="198" class="muted" font-size="13">可选，留空时禁用 aria2c</text><rect x="602" y="176" width="64" height="34" rx="7" fill="#fff" stroke="#D8E0EA"/><text x="634" y="198" text-anchor="middle" class="text" font-size="13">浏览</text>
      <rect x="542" y="224" width="124" height="34" rx="8" class="blue"/><text x="604" y="247" text-anchor="middle" fill="#fff" font-size="14">重新检测工具</text>
    </g>
    <g transform="translate(30 530)">
      <text class="text" font-size="18" font-weight="700">下载默认值</text><rect y="22" width="700" height="142" rx="10" class="panel"/><text x="24" y="64" class="muted" font-size="14">默认下载目录</text><rect x="150" y="44" width="400" height="34" rx="7" fill="#fff" stroke="#D8E0EA"/><text x="166" y="66" class="muted" font-size="13">D:\Downloads\BBDown</text><rect x="562" y="44" width="64" height="34" rx="7" fill="#fff" stroke="#D8E0EA"/><text x="594" y="66" text-anchor="middle" class="text" font-size="13">浏览</text><text x="24" y="116" class="muted" font-size="14">最大同时下载数</text><rect x="150" y="96" width="88" height="34" rx="7" fill="#fff" stroke="#D8E0EA"/><text x="194" y="118" text-anchor="middle" class="text" font-size="14">2</text><text x="286" y="116" class="muted" font-size="14">默认画质</text><rect x="370" y="96" width="100" height="34" rx="7" fill="#fff" stroke="#D8E0EA"/><text x="420" y="118" text-anchor="middle" class="text" font-size="14">自动</text>
    </g>
    <g transform="translate(30 724)">
      <text class="text" font-size="18" font-weight="700">外观 / 系统</text><rect y="22" width="700" height="104" rx="10" class="panel"/><text x="24" y="64" class="text" font-size="14">主题</text><rect x="110" y="44" width="120" height="34" rx="7" fill="#fff" stroke="#D8E0EA"/><text x="170" y="66" text-anchor="middle" class="text" font-size="14">跟随系统</text><text x="300" y="64" class="text" font-size="14">启用通知</text><rect x="390" y="48" width="44" height="24" rx="12" class="blue"/><circle cx="422" cy="60" r="9" fill="#fff"/><rect x="560" y="48" width="96" height="34" rx="8" class="blue"/><text x="608" y="71" text-anchor="middle" fill="#fff" font-size="14">保存设置</text>
    </g>
  </g>
  <g transform="translate(880 140)" filter="url(#shadow)">
    <rect width="390" height="430" rx="14" class="panel"/><text x="28" y="48" class="text" font-size="24" font-weight="700">B. 扫码登录弹窗</text><rect x="58" y="86" width="274" height="274" rx="14" fill="#fff" stroke="#D8E0EA"/><rect x="94" y="122" width="202" height="202" rx="8" fill="#101828"/><g fill="#fff"><rect x="116" y="144" width="46" height="46"/><rect x="228" y="144" width="46" height="46"/><rect x="116" y="256" width="46" height="46"/><rect x="184" y="162" width="18" height="18"/><rect x="204" y="204" width="18" height="18"/><rect x="184" y="246" width="18" height="18"/><rect x="246" y="226" width="18" height="18"/></g><text x="195" y="386" text-anchor="middle" class="text" font-size="16" font-weight="700">使用 Bilibili 手机客户端扫码</text><text x="195" y="410" text-anchor="middle" class="muted" font-size="13">成功后自动关闭并刷新账号状态</text>
  </g>
  <g transform="translate(880 620)" filter="url(#shadow)">
    <rect width="850" height="560" rx="14" class="panel"/><text x="28" y="48" class="text" font-size="24" font-weight="700">D. 关于页 / 诊断信息</text><rect x="44" y="86" width="90" height="90" rx="22" fill="url(#mark)"/><text x="160" y="116" class="text" font-size="24" font-weight="700">BBDown GUI</text><text x="160" y="148" class="muted" font-size="15">v0.2.0 · Electron desktop client for BBDown</text><rect x="160" y="166" width="96" height="34" rx="8" class="blue"/><text x="208" y="189" text-anchor="middle" fill="#fff" font-size="14">检查更新</text><rect x="268" y="166" width="116" height="34" rx="8" fill="#fff" stroke="#D8E0EA"/><text x="326" y="189" text-anchor="middle" class="text" font-size="14">打开 GitHub</text>
    <g transform="translate(44 236)"><text class="text" font-size="18" font-weight="700">运行环境</text><rect y="24" width="760" height="146" rx="10" class="soft" stroke="#D8E0EA"/><text x="24" y="62" class="muted" font-size="14">Electron</text><text x="180" y="62" class="text" font-size="14">41.3.0</text><text x="24" y="96" class="muted" font-size="14">BBDown</text><text x="180" y="96" class="text" font-size="14">1.6.3 · D:\Downloads\BBDown.exe</text><text x="24" y="130" class="muted" font-size="14">FFmpeg</text><text x="180" y="130" class="text" font-size="14">7.0.0 · C:\Tools\ffmpeg.exe</text><text x="24" y="164" class="muted" font-size="14">aria2c</text><text x="180" y="164" class="text" font-size="14">未配置</text></g>
    <g transform="translate(44 440)"><rect width="760" height="72" rx="10" class="panel"/><text x="24" y="30" class="text" font-size="16" font-weight="700">复制诊断信息</text><text x="24" y="52" class="muted" font-size="13">复制版本、工具路径、平台和最近错误，方便反馈问题</text><rect x="626" y="20" width="98" height="34" rx="8" class="blue"/><text x="675" y="43" text-anchor="middle" fill="#fff" font-size="14">复制</text></g>
  </g>
</svg>
